<svg width="21" height="22" viewBox="0 0 21 22" fill="none" xmlns="http://www.w3.org/2000/svg">
<path d="M14.9937 9.04655V4.88312C14.9937 4.76395 14.9387 4.65385 14.8608 4.56673L10.193 -0.334885C10.1059 -0.426529 9.982 -0.477051 9.85829 -0.477051H2.45761C1.09134 -0.477051 0 0.637114 0 2.00355V15.9977C0 17.3642 1.09134 18.4601 2.45761 18.4601H8.29933C9.40427 20.2941 11.4127 21.5229 13.7006 21.5229C17.1762 21.5229 20.0145 18.6984 20.0145 15.2183C20.0192 12.1782 17.8365 9.63805 14.9937 9.04655ZM10.3168 1.13243L13.4485 4.4291H11.4172C10.812 4.4291 10.3168 3.92942 10.3168 3.32417V1.13243ZM2.45761 17.5429C1.60025 17.5429 0.917113 16.8551 0.917113 15.9977V2.00355C0.917113 1.14149 1.60025 0.440062 2.45761 0.440062H9.39974V3.32417C9.39974 4.43833 10.3031 5.34621 11.4172 5.34621H14.0766V8.92722C13.9391 8.92268 13.829 8.90892 13.7099 8.90892C12.1096 8.90892 10.6378 9.52341 9.52814 10.4863H3.70487C3.4526 10.4863 3.24632 10.6926 3.24632 10.9447C3.24632 11.197 3.4526 11.4033 3.70487 11.4033H8.67531C8.34969 11.8618 8.07912 12.3204 7.86831 12.8248H3.70487C3.4526 12.8248 3.24632 13.0311 3.24632 13.2833C3.24632 13.5354 3.4526 13.7419 3.70487 13.7419H7.57021C7.45557 14.2004 7.39599 14.7094 7.39599 15.2183C7.39599 16.0436 7.55645 16.8598 7.84531 17.5476H2.45761V17.5429ZM13.7053 20.6105C10.7341 20.6105 8.31763 18.194 8.31763 15.2228C8.31763 12.2516 10.7294 9.8351 13.7053 9.8351C16.6811 9.8351 19.0929 12.2516 19.0929 15.2228C19.0929 18.194 16.6765 20.6105 13.7053 20.6105Z" fill="#AF1E2E"/>
<path d="M3.70465 9.1062H8.34946C8.60174 9.1062 8.80802 8.89975 8.80802 8.64764C8.80802 8.39537 8.60174 8.18909 8.34946 8.18909H3.70465C3.45238 8.18909 3.24609 8.39537 3.24609 8.64764C3.24609 8.89975 3.45238 9.1062 3.70465 9.1062Z" fill="#AF1E2E"/>
<path d="M14.0312 11.8387C13.9441 11.7471 13.8249 11.692 13.6965 11.692C13.5681 11.692 13.4489 11.7471 13.3618 11.8387L10.6747 14.7228C10.5005 14.9063 10.5143 15.1997 10.6977 15.3694C10.8812 15.5436 11.1791 15.5298 11.3533 15.3465L13.2517 13.3153V18.3223C13.2517 18.5746 13.458 18.7808 13.7102 18.7808C13.9624 18.7808 14.1688 18.5746 14.1688 18.3223V13.3153L16.0532 15.3465C16.145 15.4427 16.2642 15.4932 16.3881 15.4932C16.498 15.4932 16.6081 15.4519 16.6998 15.3694C16.8832 15.1951 16.897 14.9063 16.7228 14.7228L14.0312 11.8387Z" fill="#AF1E2E"/>
</svg>
