<svg width="37" height="37" viewBox="0 0 37 37" fill="none" xmlns="http://www.w3.org/2000/svg">
<path d="M18.5 0C14.841 6.32449e-09 11.2642 1.08503 8.22184 3.11789C5.17951 5.15074 2.80832 8.04011 1.40813 11.4206C0.00794369 14.8011 -0.358355 18.5209 0.35556 22.1096C1.06947 25.6982 2.83154 28.9946 5.41892 31.5819C8.0063 34.1691 11.3028 35.931 14.8915 36.6447C18.4802 37.3584 22.2 36.9918 25.5804 35.5915C28.9608 34.1911 31.85 31.8197 33.8827 28.7773C35.9154 25.7348 37.0002 22.1579 37 18.4989C36.9997 13.5926 35.0505 8.88733 31.5811 5.41814C28.1117 1.94895 23.4063 -8.48046e-09 18.5 0Z" fill="#DE1C1E"/>
<path d="M21.3989 18.4979L26.137 13.7609C26.521 13.3762 26.7366 12.855 26.7366 12.3115C26.7366 11.768 26.521 11.2467 26.137 10.8621C25.7524 10.4781 25.2311 10.2624 24.6876 10.2624C24.1441 10.2624 23.6228 10.4781 23.2382 10.8621L18.5001 15.6002L13.7631 10.8621C13.3787 10.4777 12.8573 10.2617 12.3137 10.2617C11.77 10.2617 11.2487 10.4777 10.8643 10.8621C10.4799 11.2465 10.2639 11.7678 10.2639 12.3115C10.2639 12.8551 10.4799 13.3765 10.8643 13.7609L15.6024 18.4979L10.8643 23.236C10.4804 23.6205 10.2647 24.1416 10.2647 24.6849C10.2647 25.2282 10.4804 25.7493 10.8643 26.1337C11.0546 26.3241 11.2805 26.4751 11.5292 26.5782C11.7779 26.6812 12.0445 26.7343 12.3137 26.7343C12.5829 26.7343 12.8494 26.6812 13.0981 26.5782C13.3468 26.4751 13.5728 26.3241 13.7631 26.1337L18.5001 21.3967L23.2371 26.1337C23.6214 26.5181 24.1426 26.7341 24.6861 26.7342C25.2297 26.7343 25.751 26.5185 26.1354 26.1343C26.5198 25.75 26.7358 25.2288 26.7359 24.6852C26.736 24.1417 26.5202 23.6204 26.1359 23.236L21.3989 18.4979Z" fill="white"/>
</svg>
