<svg width="37" height="37" viewBox="0 0 37 37" fill="none" xmlns="http://www.w3.org/2000/svg">
<path fill-rule="evenodd" clip-rule="evenodd" d="M18.5 0C28.7155 0 37 8.28453 37 18.5C37 28.7155 28.7155 37 18.5 37C8.28453 37 0 28.7155 0 18.5C0 8.28453 8.28453 0 18.5 0ZM16.518 20.0919V10.5702C16.518 9.47864 17.4084 8.58826 18.5 8.58826C19.5916 8.58826 20.482 9.48692 20.482 10.5702V20.0919C20.482 21.1752 19.5916 22.0739 18.5 22.0739C17.4084 22.0739 16.518 21.1835 16.518 20.0919ZM18.4914 24.1997C19.7319 24.1997 20.7379 25.2057 20.7379 26.446C20.7379 27.6865 19.7319 28.6925 18.4914 28.6925C17.2511 28.6925 16.2451 27.6865 16.2451 26.446C16.2451 25.2057 17.2511 24.1997 18.4914 24.1997Z" fill="#2647E4"/>
</svg>
