<svg width="37" height="37" viewBox="0 0 37 37" fill="none" xmlns="http://www.w3.org/2000/svg">
<path d="M37 18.5C37 20.0787 35.0606 21.3798 34.6721 22.8352C34.2712 24.3398 35.2857 26.4365 34.5241 27.7531C33.7502 29.0913 31.4223 29.2516 30.3369 30.3369C29.2516 31.4223 29.0913 33.7502 27.7531 34.5241C26.4365 35.2857 24.3398 34.2712 22.8352 34.6721C21.3798 35.0606 20.0787 37 18.5 37C16.9213 37 15.6202 35.0606 14.1648 34.6721C12.6602 34.2712 10.5635 35.2857 9.24692 34.5241C7.90875 33.7502 7.74842 31.4223 6.66308 30.3369C5.57775 29.2516 3.24983 29.0913 2.47592 27.7531C1.71433 26.4365 2.72875 24.3398 2.32792 22.8352C1.93942 21.3798 0 20.0787 0 18.5C0 16.9213 1.93942 15.6202 2.32792 14.1648C2.72875 12.6602 1.71433 10.5635 2.47592 9.24692C3.24983 7.90875 5.57775 7.74842 6.66308 6.66308C7.74842 5.57775 7.90875 3.24983 9.24692 2.47592C10.5635 1.71433 12.6602 2.72875 14.1648 2.32792C15.6202 1.93942 16.9213 0 18.5 0C20.0787 0 21.3798 1.93942 22.8352 2.32792C24.3398 2.72875 26.4365 1.71433 27.7531 2.47592C29.0913 3.24983 29.2516 5.57775 30.3369 6.66308C31.4223 7.74842 33.7502 7.90875 34.5241 9.24692C35.2857 10.5635 34.2712 12.6602 34.6721 14.1648C35.0606 15.6202 37 16.9213 37 18.5Z" fill="#06996A"/>
<path d="M23.8464 12.981L16.804 20.0234L13.1534 16.3758C12.361 15.5834 11.0752 15.5834 10.2828 16.3758C9.49037 17.1682 9.49037 18.4539 10.2828 19.2464L15.4042 24.3678C16.175 25.1386 17.4269 25.1386 18.1977 24.3678L26.7139 15.8516C27.5063 15.0592 27.5063 13.7734 26.7139 12.981C25.9215 12.1886 24.6388 12.1886 23.8464 12.981Z" fill="white"/>
</svg>
