<svg width="37" height="34" viewBox="0 0 37 34" fill="none" xmlns="http://www.w3.org/2000/svg">
<path d="M36.418 26.6558L22.286 2.18472C21.9025 1.52048 21.3508 0.968888 20.6866 0.585391C20.0223 0.201894 19.2688 0 18.5017 0C17.7347 0 16.9812 0.201894 16.3169 0.585391C15.6527 0.968888 15.101 1.52048 14.7175 2.18472L0.585447 26.6558C0.20177 27.3203 -0.000148349 28.0742 8.17748e-08 28.8415C0.000148513 29.6089 0.202359 30.3627 0.586292 31.0271C0.970226 31.6915 1.52234 32.243 2.18711 32.6263C2.85188 33.0096 3.60586 33.2111 4.37322 33.2105H32.6303C33.3973 33.2105 34.1509 33.0086 34.8152 32.625C35.4794 32.2415 36.0311 31.6898 36.4146 31.0256C36.7981 30.3613 37 29.6077 37 28.8407C37 28.0736 36.7981 27.3201 36.4146 26.6558H36.418Z" fill="#BD6306"/>
<path d="M18.5018 22.7246C18.9598 22.7267 19.402 22.5575 19.7415 22.2503C20.0811 21.943 20.2936 21.5199 20.3372 21.0641L21.3685 10.7513C21.4051 10.3863 21.3648 10.0177 21.2501 9.66932C21.1355 9.32092 20.949 9.00045 20.7027 8.72863C20.4564 8.45682 20.1558 8.2397 19.8204 8.09131C19.4849 7.94293 19.1221 7.86658 18.7553 7.86719H18.2484C17.882 7.86719 17.5196 7.94399 17.1847 8.09264C16.8498 8.2413 16.5497 8.45851 16.3039 8.73025C16.0581 9.002 15.872 9.32226 15.7576 9.67036C15.6432 10.0185 15.603 10.3867 15.6396 10.7513L16.6709 21.0641C16.7144 21.5192 16.9263 21.9417 17.2649 22.2488C17.6036 22.5559 18.0447 22.7256 18.5018 22.7246Z" fill="white"/>
<path d="M18.5018 29.7154C20.1911 29.7154 21.5606 28.3459 21.5606 26.6565C21.5606 24.9672 20.1911 23.5977 18.5018 23.5977C16.8124 23.5977 15.4429 24.9672 15.4429 26.6565C15.4429 28.3459 16.8124 29.7154 18.5018 29.7154Z" fill="white"/>
</svg>
